solid OpenSCAD_Model
  facet normal 1 0 0
    outer loop
      vertex 14.049999237060547 -5 2.59999942779541
      vertex 14.049999237060547 5 2.299999237060547
      vertex 14.049999237060547 5 2.59999942779541
    endloop
  endfacet
  facet normal 1 0 0
    outer loop
      vertex 14.049999237060547 5 2.299999237060547
      vertex 14.049999237060547 -5 2.59999942779541
      vertex 14.049999237060547 -5 2.299999237060547
    endloop
  endfacet
  facet normal 0 0 1
    outer loop
      vertex 14.049999237060547 5 2.59999942779541
      vertex 13.565427780151367 1.5908565521240234 2.59999942779541
      vertex 14.049999237060547 -5 2.59999942779541
    endloop
  endfacet
  facet normal 0 0 1
    outer loop
      vertex 14.049999237060547 5 2.59999942779541
      vertex 11.974571228027344 1.5908565521240234 2.59999942779541
      vertex 13.565427780151367 1.5908565521240234 2.59999942779541
    endloop
  endfacet
  facet normal 0 0 1
    outer loop
      vertex 11.974571228027344 1.5908565521240234 2.59999942779541
      vertex 11.25 5 2.59999942779541
      vertex 11.974571228027344 -1.5908565521240234 2.59999942779541
    endloop
  endfacet
  facet normal 0 0 1
    outer loop
      vertex 11.25 5 2.59999942779541
      vertex 11.974571228027344 1.5908565521240234 2.59999942779541
      vertex 14.049999237060547 5 2.59999942779541
    endloop
  endfacet
  facet normal 0 0 1
    outer loop
      vertex 13.565427780151367 -1.5908565521240234 2.59999942779541
      vertex 14.049999237060547 -5 2.59999942779541
      vertex 13.565427780151367 1.5908565521240234 2.59999942779541
    endloop
  endfacet
  facet normal 0 0 1
    outer loop
      vertex 11.974571228027344 -1.5908565521240234 2.59999942779541
      vertex 14.049999237060547 -5 2.59999942779541
      vertex 13.565427780151367 -1.5908565521240234 2.59999942779541
    endloop
  endfacet
  facet normal 0 0 1
    outer loop
      vertex 11.974571228027344 -1.5908565521240234 2.59999942779541
      vertex 11.25 -5 2.59999942779541
      vertex 14.049999237060547 -5 2.59999942779541
    endloop
  endfacet
  facet normal 0 0 1
    outer loop
      vertex 11.25 -5 2.59999942779541
      vertex 11.974571228027344 -1.5908565521240234 2.59999942779541
      vertex 11.25 5 2.59999942779541
    endloop
  endfacet
  facet normal 0 0 -1
    outer loop
      vertex 14.25 -14.25 0
      vertex 10.5 -6.329140663146973 0
      vertex 14.25 14.25 0
    endloop
  endfacet
  facet normal 0 0 -1
    outer loop
      vertex 14.25 -14.25 0
      vertex 6.329140663146973 -10.5 0
      vertex 10.5 -6.329140663146973 0
    endloop
  endfacet
  facet normal 0 0 -1
    outer loop
      vertex 14.25 -14.25 0
      vertex -6.329140663146973 -10.5 0
      vertex 6.329140663146973 -10.5 0
    endloop
  endfacet
  facet normal 0 0 -1
    outer loop
      vertex -10.5 -6.329140663146973 0
      vertex -14.25 -14.25 0
      vertex -10.5 6.329140663146973 0
    endloop
  endfacet
  facet normal 0 0 -1
    outer loop
      vertex -6.329140663146973 -10.5 0
      vertex -14.25 -14.25 0
      vertex -10.5 -6.329140663146973 0
    endloop
  endfacet
  facet normal 0 0 -1
    outer loop
      vertex -14.25 -14.25 0
      vertex -6.329140663146973 -10.5 0
      vertex 14.25 -14.25 0
    endloop
  endfacet
  facet normal 0 0 -1
    outer loop
      vertex 10.5 6.329140663146973 0
      vertex 14.25 14.25 0
      vertex 10.5 -6.329140663146973 0
    endloop
  endfacet
  facet normal 0 0 -1
    outer loop
      vertex 6.329140663146973 10.5 0
      vertex 14.25 14.25 0
      vertex 10.5 6.329140663146973 0
    endloop
  endfacet
  facet normal 0 0 -1
    outer loop
      vertex -6.329140663146973 10.5 0
      vertex 14.25 14.25 0
      vertex 6.329140663146973 10.5 0
    endloop
  endfacet
  facet normal 0 0 -1
    outer loop
      vertex -6.329140663146973 10.5 0
      vertex -14.25 14.25 0
      vertex 14.25 14.25 0
    endloop
  endfacet
  facet normal 0 0 -1
    outer loop
      vertex -10.5 6.329140663146973 0
      vertex -14.25 14.25 0
      vertex -6.329140663146973 10.5 0
    endloop
  endfacet
  facet normal 0 0 -1
    outer loop
      vertex -14.25 14.25 0
      vertex -10.5 6.329140663146973 0
      vertex -14.25 -14.25 0
    endloop
  endfacet
  facet normal -1 0 0
    outer loop
      vertex 11.25 -5 2.299999237060547
      vertex 11.25 5 2.59999942779541
      vertex 11.25 5 2.299999237060547
    endloop
  endfacet
  facet normal -1 0 0
    outer loop
      vertex 11.25 5 2.59999942779541
      vertex 11.25 -5 2.299999237060547
      vertex 11.25 -5 2.59999942779541
    endloop
  endfacet
  facet normal 0 1 0
    outer loop
      vertex 14.049999237060547 5 2.299999237060547
      vertex 11.25 5 2.59999942779541
      vertex 14.049999237060547 5 2.59999942779541
    endloop
  endfacet
  facet normal 0 1 0
    outer loop
      vertex 11.25 5 2.59999942779541
      vertex 14.049999237060547 5 2.299999237060547
      vertex 11.25 5 2.299999237060547
    endloop
  endfacet
  facet normal 0 -1 0
    outer loop
      vertex 11.25 -5 2.299999237060547
      vertex 14.049999237060547 -5 2.59999942779541
      vertex 11.25 -5 2.59999942779541
    endloop
  endfacet
  facet normal 0 -1 0
    outer loop
      vertex 14.049999237060547 -5 2.59999942779541
      vertex 11.25 -5 2.299999237060547
      vertex 14.049999237060547 -5 2.299999237060547
    endloop
  endfacet
  facet normal 0 0 1
    outer loop
      vertex 1.5908565521240234 11.974571228027344 2.59999942779541
      vertex 5 14.049999237060547 2.59999942779541
      vertex 1.5908565521240234 13.565427780151367 2.59999942779541
    endloop
  endfacet
  facet normal 0 0 1
    outer loop
      vertex 5 14.049999237060547 2.59999942779541
      vertex -1.5908565521240234 13.565427780151367 2.59999942779541
      vertex 1.5908565521240234 13.565427780151367 2.59999942779541
    endloop
  endfacet
  facet normal 0 0 1
    outer loop
      vertex -1.5908565521240234 13.565427780151367 2.59999942779541
      vertex -5 14.049999237060547 2.59999942779541
      vertex -1.5908565521240234 11.974571228027344 2.59999942779541
    endloop
  endfacet
  facet normal 0 0 1
    outer loop
      vertex -5 14.049999237060547 2.59999942779541
      vertex -1.5908565521240234 13.565427780151367 2.59999942779541
      vertex 5 14.049999237060547 2.59999942779541
    endloop
  endfacet
  facet normal 0 0 1
    outer loop
      vertex 5 14.049999237060547 2.59999942779541
      vertex 1.5908565521240234 11.974571228027344 2.59999942779541
      vertex 5 11.25 2.59999942779541
    endloop
  endfacet
  facet normal 0 0 1
    outer loop
      vertex -1.5908565521240234 11.974571228027344 2.59999942779541
      vertex 5 11.25 2.59999942779541
      vertex 1.5908565521240234 11.974571228027344 2.59999942779541
    endloop
  endfacet
  facet normal 0 0 1
    outer loop
      vertex -1.5908565521240234 11.974571228027344 2.59999942779541
      vertex -5 11.25 2.59999942779541
      vertex 5 11.25 2.59999942779541
    endloop
  endfacet
  facet normal 0 0 1
    outer loop
      vertex -5 11.25 2.59999942779541
      vertex -1.5908565521240234 11.974571228027344 2.59999942779541
      vertex -5 14.049999237060547 2.59999942779541
    endloop
  endfacet
  facet normal 0 1 0
    outer loop
      vertex 5 14.049999237060547 2.299999237060547
      vertex -5 14.049999237060547 2.59999942779541
      vertex 5 14.049999237060547 2.59999942779541
    endloop
  endfacet
  facet normal 0 1 0
    outer loop
      vertex -5 14.049999237060547 2.59999942779541
      vertex 5 14.049999237060547 2.299999237060547
      vertex -5 14.049999237060547 2.299999237060547
    endloop
  endfacet
  facet normal 0 -1 0
    outer loop
      vertex -5 11.25 2.299999237060547
      vertex 5 11.25 2.59999942779541
      vertex -5 11.25 2.59999942779541
    endloop
  endfacet
  facet normal 0 -1 0
    outer loop
      vertex 5 11.25 2.59999942779541
      vertex -5 11.25 2.299999237060547
      vertex 5 11.25 2.299999237060547
    endloop
  endfacet
  facet normal -1 0 0
    outer loop
      vertex -5 11.25 2.299999237060547
      vertex -5 14.049999237060547 2.59999942779541
      vertex -5 14.049999237060547 2.299999237060547
    endloop
  endfacet
  facet normal -1 0 0
    outer loop
      vertex -5 14.049999237060547 2.59999942779541
      vertex -5 11.25 2.299999237060547
      vertex -5 11.25 2.59999942779541
    endloop
  endfacet
  facet normal 1 0 0
    outer loop
      vertex 5 11.25 2.59999942779541
      vertex 5 14.049999237060547 2.299999237060547
      vertex 5 14.049999237060547 2.59999942779541
    endloop
  endfacet
  facet normal 1 0 0
    outer loop
      vertex 5 14.049999237060547 2.299999237060547
      vertex 5 11.25 2.59999942779541
      vertex 5 11.25 2.299999237060547
    endloop
  endfacet
  facet normal 0 0 1
    outer loop
      vertex -11.25 5 2.59999942779541
      vertex -11.974571228027344 1.5908565521240234 2.59999942779541
      vertex -11.25 -5 2.59999942779541
    endloop
  endfacet
  facet normal 0 0 1
    outer loop
      vertex -14.049999237060547 5 2.59999942779541
      vertex -11.974571228027344 1.5908565521240234 2.59999942779541
      vertex -11.25 5 2.59999942779541
    endloop
  endfacet
  facet normal 0 0 1
    outer loop
      vertex -13.565427780151367 1.5908565521240234 2.59999942779541
      vertex -14.049999237060547 5 2.59999942779541
      vertex -13.565427780151367 -1.5908565521240234 2.59999942779541
    endloop
  endfacet
  facet normal 0 0 1
    outer loop
      vertex -11.974571228027344 1.5908565521240234 2.59999942779541
      vertex -14.049999237060547 5 2.59999942779541
      vertex -13.565427780151367 1.5908565521240234 2.59999942779541
    endloop
  endfacet
  facet normal 0 0 1
    outer loop
      vertex -11.974571228027344 -1.5908565521240234 2.59999942779541
      vertex -11.25 -5 2.59999942779541
      vertex -11.974571228027344 1.5908565521240234 2.59999942779541
    endloop
  endfacet
  facet normal 0 0 1
    outer loop
      vertex -14.049999237060547 -5 2.59999942779541
      vertex -11.974571228027344 -1.5908565521240234 2.59999942779541
      vertex -13.565427780151367 -1.5908565521240234 2.59999942779541
    endloop
  endfacet
  facet normal 0 0 1
    outer loop
      vertex -11.974571228027344 -1.5908565521240234 2.59999942779541
      vertex -14.049999237060547 -5 2.59999942779541
      vertex -11.25 -5 2.59999942779541
    endloop
  endfacet
  facet normal 0 0 1
    outer loop
      vertex -14.049999237060547 -5 2.59999942779541
      vertex -13.565427780151367 -1.5908565521240234 2.59999942779541
      vertex -14.049999237060547 5 2.59999942779541
    endloop
  endfacet
  facet normal -1 0 0
    outer loop
      vertex -14.049999237060547 -5 2.299999237060547
      vertex -14.049999237060547 5 2.59999942779541
      vertex -14.049999237060547 5 2.299999237060547
    endloop
  endfacet
  facet normal -1 0 0
    outer loop
      vertex -14.049999237060547 5 2.59999942779541
      vertex -14.049999237060547 -5 2.299999237060547
      vertex -14.049999237060547 -5 2.59999942779541
    endloop
  endfacet
  facet normal 1 0 0
    outer loop
      vertex -11.25 -5 2.59999942779541
      vertex -11.25 5 2.299999237060547
      vertex -11.25 5 2.59999942779541
    endloop
  endfacet
  facet normal 1 0 0
    outer loop
      vertex -11.25 5 2.299999237060547
      vertex -11.25 -5 2.59999942779541
      vertex -11.25 -5 2.299999237060547
    endloop
  endfacet
  facet normal 0 1 0
    outer loop
      vertex -11.25 5 2.299999237060547
      vertex -14.049999237060547 5 2.59999942779541
      vertex -11.25 5 2.59999942779541
    endloop
  endfacet
  facet normal 0 1 0
    outer loop
      vertex -14.049999237060547 5 2.59999942779541
      vertex -11.25 5 2.299999237060547
      vertex -14.049999237060547 5 2.299999237060547
    endloop
  endfacet
  facet normal 0 -1 0
    outer loop
      vertex -14.049999237060547 -5 2.299999237060547
      vertex -11.25 -5 2.59999942779541
      vertex -14.049999237060547 -5 2.59999942779541
    endloop
  endfacet
  facet normal 0 -1 0
    outer loop
      vertex -11.25 -5 2.59999942779541
      vertex -14.049999237060547 -5 2.299999237060547
      vertex -11.25 -5 2.299999237060547
    endloop
  endfacet
  facet normal 0 -1 0
    outer loop
      vertex -5 -14.049999237060547 2.299999237060547
      vertex 5 -14.049999237060547 2.59999942779541
      vertex -5 -14.049999237060547 2.59999942779541
    endloop
  endfacet
  facet normal 0 -1 0
    outer loop
      vertex 5 -14.049999237060547 2.59999942779541
      vertex -5 -14.049999237060547 2.299999237060547
      vertex 5 -14.049999237060547 2.299999237060547
    endloop
  endfacet
  facet normal 0 0 1
    outer loop
      vertex 5 -11.25 2.59999942779541
      vertex 1.5908565521240234 -11.974571228027344 2.59999942779541
      vertex 5 -14.049999237060547 2.59999942779541
    endloop
  endfacet
  facet normal 0 0 1
    outer loop
      vertex 5 -11.25 2.59999942779541
      vertex -1.5908565521240234 -11.974571228027344 2.59999942779541
      vertex 1.5908565521240234 -11.974571228027344 2.59999942779541
    endloop
  endfacet
  facet normal 0 0 1
    outer loop
      vertex -5 -14.049999237060547 2.59999942779541
      vertex -1.5908565521240234 -11.974571228027344 2.59999942779541
      vertex -5 -11.25 2.59999942779541
    endloop
  endfacet
  facet normal 0 0 1
    outer loop
      vertex -5 -11.25 2.59999942779541
      vertex -1.5908565521240234 -11.974571228027344 2.59999942779541
      vertex 5 -11.25 2.59999942779541
    endloop
  endfacet
  facet normal 0 0 1
    outer loop
      vertex 1.5908565521240234 -13.565427780151367 2.59999942779541
      vertex 5 -14.049999237060547 2.59999942779541
      vertex 1.5908565521240234 -11.974571228027344 2.59999942779541
    endloop
  endfacet
  facet normal 0 0 1
    outer loop
      vertex -1.5908565521240234 -13.565427780151367 2.59999942779541
      vertex 5 -14.049999237060547 2.59999942779541
      vertex 1.5908565521240234 -13.565427780151367 2.59999942779541
    endloop
  endfacet
  facet normal 0 0 1
    outer loop
      vertex -1.5908565521240234 -13.565427780151367 2.59999942779541
      vertex -5 -14.049999237060547 2.59999942779541
      vertex 5 -14.049999237060547 2.59999942779541
    endloop
  endfacet
  facet normal 0 0 1
    outer loop
      vertex -1.5908565521240234 -11.974571228027344 2.59999942779541
      vertex -5 -14.049999237060547 2.59999942779541
      vertex -1.5908565521240234 -13.565427780151367 2.59999942779541
    endloop
  endfacet
  facet normal 0 1 0
    outer loop
      vertex 5 -11.25 2.299999237060547
      vertex -5 -11.25 2.59999942779541
      vertex 5 -11.25 2.59999942779541
    endloop
  endfacet
  facet normal 0 1 0
    outer loop
      vertex -5 -11.25 2.59999942779541
      vertex 5 -11.25 2.299999237060547
      vertex -5 -11.25 2.299999237060547
    endloop
  endfacet
  facet normal -1 0 0
    outer loop
      vertex -5 -14.049999237060547 2.299999237060547
      vertex -5 -11.25 2.59999942779541
      vertex -5 -11.25 2.299999237060547
    endloop
  endfacet
  facet normal -1 0 0
    outer loop
      vertex -5 -11.25 2.59999942779541
      vertex -5 -14.049999237060547 2.299999237060547
      vertex -5 -14.049999237060547 2.59999942779541
    endloop
  endfacet
  facet normal 1 0 0
    outer loop
      vertex 5 -14.049999237060547 2.59999942779541
      vertex 5 -11.25 2.299999237060547
      vertex 5 -11.25 2.59999942779541
    endloop
  endfacet
  facet normal 1 0 0
    outer loop
      vertex 5 -11.25 2.299999237060547
      vertex 5 -14.049999237060547 2.59999942779541
      vertex 5 -14.049999237060547 2.299999237060547
    endloop
  endfacet
  facet normal 0 0.9995359223752575 0.030462105663325217
    outer loop
      vertex 13.565427780151367 1.5908565521240234 2.59999942779541
      vertex 12.001999855041504 1.5359992980957031 4.399999618530273
      vertex 13.537999153137207 1.5359992980957031 4.399999618530273
    endloop
  endfacet
  facet normal 0 0.9995359223752573 0.030462105663325214
    outer loop
      vertex 12.001999855041504 1.5359992980957031 4.399999618530273
      vertex 13.565427780151367 1.5908565521240234 2.59999942779541
      vertex 11.974571228027344 1.5908565521240234 2.59999942779541
    endloop
  endfacet
  facet normal 0 0 1
    outer loop
      vertex 12.001999855041504 1.5359992980957031 4.399999618530273
      vertex 13.537999153137207 -1.5359992980957031 4.399999618530273
      vertex 13.537999153137207 1.5359992980957031 4.399999618530273
    endloop
  endfacet
  facet normal 0 0 1
    outer loop
      vertex 13.537999153137207 -1.5359992980957031 4.399999618530273
      vertex 12.001999855041504 1.5359992980957031 4.399999618530273
      vertex 12.001999855041504 -1.5359992980957031 4.399999618530273
    endloop
  endfacet
  facet normal 0 -0.9995359223752575 0.030462105663325217
    outer loop
      vertex 11.974571228027344 -1.5908565521240234 2.59999942779541
      vertex 13.537999153137207 -1.5359992980957031 4.399999618530273
      vertex 12.001999855041504 -1.5359992980957031 4.399999618530273
    endloop
  endfacet
  facet normal 0 -0.9995359223752573 0.030462105663325214
    outer loop
      vertex 13.537999153137207 -1.5359992980957031 4.399999618530273
      vertex 11.974571228027344 -1.5908565521240234 2.59999942779541
      vertex 13.565427780151367 -1.5908565521240234 2.59999942779541
    endloop
  endfacet
  facet normal -0.9998839199957757 0 0.015236355662731264
    outer loop
      vertex 11.974571228027344 1.5908565521240234 2.59999942779541
      vertex 12.001999855041504 -1.5359992980957031 4.399999618530273
      vertex 12.001999855041504 1.5359992980957031 4.399999618530273
    endloop
  endfacet
  facet normal -0.9998839199957757 0 0.015236355662731262
    outer loop
      vertex 12.001999855041504 -1.5359992980957031 4.399999618530273
      vertex 11.974571228027344 1.5908565521240234 2.59999942779541
      vertex 11.974571228027344 -1.5908565521240234 2.59999942779541
    endloop
  endfacet
  facet normal 0.9998839199957757 0 0.015236355662731264
    outer loop
      vertex 13.537999153137207 -1.5359992980957031 4.399999618530273
      vertex 13.565427780151367 1.5908565521240234 2.59999942779541
      vertex 13.537999153137207 1.5359992980957031 4.399999618530273
    endloop
  endfacet
  facet normal 0.9998839199957757 0 0.015236355662731262
    outer loop
      vertex 13.565427780151367 1.5908565521240234 2.59999942779541
      vertex 13.537999153137207 -1.5359992980957031 4.399999618530273
      vertex 13.565427780151367 -1.5908565521240234 2.59999942779541
    endloop
  endfacet
  facet normal -0.9995359223752575 0 0.030462105663325217
    outer loop
      vertex -1.5908565521240234 13.565427780151367 2.59999942779541
      vertex -1.5359992980957031 12.001999855041504 4.399999618530273
      vertex -1.5359992980957031 13.537999153137207 4.399999618530273
    endloop
  endfacet
  facet normal -0.9995359223752573 0 0.030462105663325214
    outer loop
      vertex -1.5359992980957031 12.001999855041504 4.399999618530273
      vertex -1.5908565521240234 13.565427780151367 2.59999942779541
      vertex -1.5908565521240234 11.974571228027344 2.59999942779541
    endloop
  endfacet
  facet normal 0 0 1
    outer loop
      vertex -1.5359992980957031 13.537999153137207 4.399999618530273
      vertex 1.5359992980957031 12.001999855041504 4.399999618530273
      vertex 1.5359992980957031 13.537999153137207 4.399999618530273
    endloop
  endfacet
  facet normal 0 0 1
    outer loop
      vertex 1.5359992980957031 12.001999855041504 4.399999618530273
      vertex -1.5359992980957031 13.537999153137207 4.399999618530273
      vertex -1.5359992980957031 12.001999855041504 4.399999618530273
    endloop
  endfacet
  facet normal 0.9995359223752575 0 0.030462105663325217
    outer loop
      vertex 1.5359992980957031 12.001999855041504 4.399999618530273
      vertex 1.5908565521240234 13.565427780151367 2.59999942779541
      vertex 1.5359992980957031 13.537999153137207 4.399999618530273
    endloop
  endfacet
  facet normal 0.9995359223752573 0 0.030462105663325214
    outer loop
      vertex 1.5908565521240234 13.565427780151367 2.59999942779541
      vertex 1.5359992980957031 12.001999855041504 4.399999618530273
      vertex 1.5908565521240234 11.974571228027344 2.59999942779541
    endloop
  endfacet
  facet normal 0 0.9998839199957757 0.015236355662731264
    outer loop
      vertex 1.5908565521240234 13.565427780151367 2.59999942779541
      vertex -1.5359992980957031 13.537999153137207 4.399999618530273
      vertex 1.5359992980957031 13.537999153137207 4.399999618530273
    endloop
  endfacet
  facet normal 0 0.9998839199957757 0.015236355662731262
    outer loop
      vertex -1.5359992980957031 13.537999153137207 4.399999618530273
      vertex 1.5908565521240234 13.565427780151367 2.59999942779541
      vertex -1.5908565521240234 13.565427780151367 2.59999942779541
    endloop
  endfacet
  facet normal 0 -0.9998839199957757 0.015236355662731264
    outer loop
      vertex -1.5908565521240234 11.974571228027344 2.59999942779541
      vertex 1.5359992980957031 12.001999855041504 4.399999618530273
      vertex -1.5359992980957031 12.001999855041504 4.399999618530273
    endloop
  endfacet
  facet normal 0 -0.9998839199957757 0.015236355662731262
    outer loop
      vertex 1.5359992980957031 12.001999855041504 4.399999618530273
      vertex -1.5908565521240234 11.974571228027344 2.59999942779541
      vertex 1.5908565521240234 11.974571228027344 2.59999942779541
    endloop
  endfacet
  facet normal 0 -0.9995359223752575 0.030462105663325217
    outer loop
      vertex -13.565427780151367 -1.5908565521240234 2.59999942779541
      vertex -12.001999855041504 -1.5359992980957031 4.399999618530273
      vertex -13.537999153137207 -1.5359992980957031 4.399999618530273
    endloop
  endfacet
  facet normal 0 -0.9995359223752573 0.030462105663325214
    outer loop
      vertex -12.001999855041504 -1.5359992980957031 4.399999618530273
      vertex -13.565427780151367 -1.5908565521240234 2.59999942779541
      vertex -11.974571228027344 -1.5908565521240234 2.59999942779541
    endloop
  endfacet
  facet normal 0 0.9995359223752575 0.030462105663325217
    outer loop
      vertex -11.974571228027344 1.5908565521240234 2.59999942779541
      vertex -13.537999153137207 1.5359992980957031 4.399999618530273
      vertex -12.001999855041504 1.5359992980957031 4.399999618530273
    endloop
  endfacet
  facet normal 0 0.9995359223752573 0.030462105663325214
    outer loop
      vertex -13.537999153137207 1.5359992980957031 4.399999618530273
      vertex -11.974571228027344 1.5908565521240234 2.59999942779541
      vertex -13.565427780151367 1.5908565521240234 2.59999942779541
    endloop
  endfacet
  facet normal -0.9998839199957757 0 0.015236355662731264
    outer loop
      vertex -13.565427780151367 1.5908565521240234 2.59999942779541
      vertex -13.537999153137207 -1.5359992980957031 4.399999618530273
      vertex -13.537999153137207 1.5359992980957031 4.399999618530273
    endloop
  endfacet
  facet normal -0.9998839199957757 0 0.015236355662731262
    outer loop
      vertex -13.537999153137207 -1.5359992980957031 4.399999618530273
      vertex -13.565427780151367 1.5908565521240234 2.59999942779541
      vertex -13.565427780151367 -1.5908565521240234 2.59999942779541
    endloop
  endfacet
  facet normal 0.9998839199957757 0 0.015236355662731264
    outer loop
      vertex -12.001999855041504 -1.5359992980957031 4.399999618530273
      vertex -11.974571228027344 1.5908565521240234 2.59999942779541
      vertex -12.001999855041504 1.5359992980957031 4.399999618530273
    endloop
  endfacet
  facet normal 0.9998839199957757 0 0.015236355662731262
    outer loop
      vertex -11.974571228027344 1.5908565521240234 2.59999942779541
      vertex -12.001999855041504 -1.5359992980957031 4.399999618530273
      vertex -11.974571228027344 -1.5908565521240234 2.59999942779541
    endloop
  endfacet
  facet normal 0 0 1
    outer loop
      vertex -13.537999153137207 1.5359992980957031 4.399999618530273
      vertex -12.001999855041504 -1.5359992980957031 4.399999618530273
      vertex -12.001999855041504 1.5359992980957031 4.399999618530273
    endloop
  endfacet
  facet normal 0 0 1
    outer loop
      vertex -12.001999855041504 -1.5359992980957031 4.399999618530273
      vertex -13.537999153137207 1.5359992980957031 4.399999618530273
      vertex -13.537999153137207 -1.5359992980957031 4.399999618530273
    endloop
  endfacet
  facet normal 0.9995359223752575 0 0.030462105663325217
    outer loop
      vertex 1.5359992980957031 -13.537999153137207 4.399999618530273
      vertex 1.5908565521240234 -11.974571228027344 2.59999942779541
      vertex 1.5359992980957031 -12.001999855041504 4.399999618530273
    endloop
  endfacet
  facet normal 0.9995359223752573 0 0.030462105663325214
    outer loop
      vertex 1.5908565521240234 -11.974571228027344 2.59999942779541
      vertex 1.5359992980957031 -13.537999153137207 4.399999618530273
      vertex 1.5908565521240234 -13.565427780151367 2.59999942779541
    endloop
  endfacet
  facet normal -0.9995359223752575 0 0.030462105663325217
    outer loop
      vertex -1.5908565521240234 -11.974571228027344 2.59999942779541
      vertex -1.5359992980957031 -13.537999153137207 4.399999618530273
      vertex -1.5359992980957031 -12.001999855041504 4.399999618530273
    endloop
  endfacet
  facet normal -0.9995359223752573 0 0.030462105663325214
    outer loop
      vertex -1.5359992980957031 -13.537999153137207 4.399999618530273
      vertex -1.5908565521240234 -11.974571228027344 2.59999942779541
      vertex -1.5908565521240234 -13.565427780151367 2.59999942779541
    endloop
  endfacet
  facet normal 0 -0.9998839199957757 0.015236355662731264
    outer loop
      vertex -1.5908565521240234 -13.565427780151367 2.59999942779541
      vertex 1.5359992980957031 -13.537999153137207 4.399999618530273
      vertex -1.5359992980957031 -13.537999153137207 4.399999618530273
    endloop
  endfacet
  facet normal 0 -0.9998839199957757 0.015236355662731262
    outer loop
      vertex 1.5359992980957031 -13.537999153137207 4.399999618530273
      vertex -1.5908565521240234 -13.565427780151367 2.59999942779541
      vertex 1.5908565521240234 -13.565427780151367 2.59999942779541
    endloop
  endfacet
  facet normal 0 0.9998839199957757 0.015236355662731264
    outer loop
      vertex 1.5908565521240234 -11.974571228027344 2.59999942779541
      vertex -1.5359992980957031 -12.001999855041504 4.399999618530273
      vertex 1.5359992980957031 -12.001999855041504 4.399999618530273
    endloop
  endfacet
  facet normal 0 0.9998839199957757 0.015236355662731262
    outer loop
      vertex -1.5359992980957031 -12.001999855041504 4.399999618530273
      vertex 1.5908565521240234 -11.974571228027344 2.59999942779541
      vertex -1.5908565521240234 -11.974571228027344 2.59999942779541
    endloop
  endfacet
  facet normal 0 0 1
    outer loop
      vertex -1.5359992980957031 -12.001999855041504 4.399999618530273
      vertex 1.5359992980957031 -13.537999153137207 4.399999618530273
      vertex 1.5359992980957031 -12.001999855041504 4.399999618530273
    endloop
  endfacet
  facet normal 0 0 1
    outer loop
      vertex 1.5359992980957031 -13.537999153137207 4.399999618530273
      vertex -1.5359992980957031 -12.001999855041504 4.399999618530273
      vertex -1.5359992980957031 -13.537999153137207 4.399999618530273
    endloop
  endfacet
  facet normal 0 0 1
    outer loop
      vertex 10.5 10.5 1.5999994277954102
      vertex 10.217156410217285 8.02619743347168 1.5999994277954102
      vertex 10.5 6.329140663146973 1.5999994277954102
    endloop
  endfacet
  facet normal 0 0 1
    outer loop
      vertex 10.5 10.5 1.5999994277954102
      vertex 8.02619743347168 10.217156410217285 1.5999994277954102
      vertex 10.217156410217285 8.02619743347168 1.5999994277954102
    endloop
  endfacet
  facet normal 0 0 1
    outer loop
      vertex 6.329140663146973 10.5 1.5999994277954102
      vertex 8.02619743347168 10.217156410217285 1.5999994277954102
      vertex 10.5 10.5 1.5999994277954102
    endloop
  endfacet
  facet normal 0 0 1
    outer loop
      vertex 8.02619743347168 10.217156410217285 1.5999994277954102
      vertex 6.329140663146973 10.5 1.5999994277954102
      vertex 6.6119842529296875 10.217156410217285 1.5999994277954102
    endloop
  endfacet
  facet normal 0 0 1
    outer loop
      vertex 10.5 6.329140663146973 1.5999994277954102
      vertex 10.217156410217285 8.02619743347168 1.5999994277954102
      vertex 10.217156410217285 6.6119842529296875 1.5999994277954102
    endloop
  endfacet
  facet normal 1 0 0
    outer loop
      vertex 10.217156410217285 8.02619743347168 4.399999618530273
      vertex 10.217156410217285 8.591882705688477 3.59999942779541
      vertex 10.217156410217285 8.591882705688477 4.199999809265137
    endloop
  endfacet
  facet normal 1 0 0
    outer loop
      vertex 10.217156410217285 8.02619743347168 4.399999618530273
      vertex 10.217156410217285 8.02619743347168 3.1999998092651367
      vertex 10.217156410217285 8.591882705688477 3.59999942779541
    endloop
  endfacet
  facet normal 1 0 0
    outer loop
      vertex 10.217156410217285 6.6119842529296875 4.399999618530273
      vertex 10.217156410217285 8.02619743347168 3.1999998092651367
      vertex 10.217156410217285 8.02619743347168 4.399999618530273
    endloop
  endfacet
  facet normal 1 0 0
    outer loop
      vertex 10.217156410217285 6.6119842529296875 1.5999994277954102
      vertex 10.217156410217285 8.02619743347168 3.1999998092651367
      vertex 10.217156410217285 6.6119842529296875 4.399999618530273
    endloop
  endfacet
  facet normal 1 0 0
    outer loop
      vertex 10.217156410217285 8.02619743347168 3.1999998092651367
      vertex 10.217156410217285 6.6119842529296875 1.5999994277954102
      vertex 10.217156410217285 8.02619743347168 1.5999994277954102
    endloop
  endfacet
  facet normal 0 1 0
    outer loop
      vertex 8.591882705688477 10.217156410217285 3.59999942779541
      vertex 8.02619743347168 10.217156410217285 4.399999618530273
      vertex 8.591882705688477 10.217156410217285 4.199999809265137
    endloop
  endfacet
  facet normal 0 1 0
    outer loop
      vertex 8.02619743347168 10.217156410217285 4.399999618530273
      vertex 8.591882705688477 10.217156410217285 3.59999942779541
      vertex 8.02619743347168 10.217156410217285 3.1999998092651367
    endloop
  endfacet
  facet normal 0 1 0
    outer loop
      vertex 8.02619743347168 10.217156410217285 4.399999618530273
      vertex 8.02619743347168 10.217156410217285 3.1999998092651367
      vertex 6.6119842529296875 10.217156410217285 4.399999618530273
    endloop
  endfacet
  facet normal 0 1 0
    outer loop
      vertex 6.6119842529296875 10.217156410217285 1.5999994277954102
      vertex 8.02619743347168 10.217156410217285 3.1999998092651367
      vertex 8.02619743347168 10.217156410217285 1.5999994277954102
    endloop
  endfacet
  facet normal 0 1 0
    outer loop
      vertex 8.02619743347168 10.217156410217285 3.1999998092651367
      vertex 6.6119842529296875 10.217156410217285 1.5999994277954102
      vertex 6.6119842529296875 10.217156410217285 4.399999618530273
    endloop
  endfacet
  facet normal 0.7071067811865475 0.7071067811865475 0
    outer loop
      vertex 10.217156410217285 8.591882705688477 4.199999809265137
      vertex 8.591882705688477 10.217156410217285 3.59999942779541
      vertex 8.591882705688477 10.217156410217285 4.199999809265137
    endloop
  endfacet
  facet normal 0.7071067811865475 0.7071067811865475 0
    outer loop
      vertex 8.591882705688477 10.217156410217285 3.59999942779541
      vertex 10.217156410217285 8.591882705688477 4.199999809265137
      vertex 10.217156410217285 8.591882705688477 3.59999942779541
    endloop
  endfacet
  facet normal 0.49999982908012763 0.49999982908012763 -0.7071070229036664
    outer loop
      vertex 10.217156410217285 8.02619743347168 3.1999998092651367
      vertex 8.591882705688477 10.217156410217285 3.59999942779541
      vertex 10.217156410217285 8.591882705688477 3.59999942779541
    endloop
  endfacet
  facet normal 0.49999982908012763 0.49999982908012763 -0.7071070229036664
    outer loop
      vertex 8.591882705688477 10.217156410217285 3.59999942779541
      vertex 10.217156410217285 8.02619743347168 3.1999998092651367
      vertex 8.02619743347168 10.217156410217285 3.1999998092651367
    endloop
  endfacet
  facet normal 0.7071067811865476 0.7071067811865476 0
    outer loop
      vertex 10.217156410217285 8.02619743347168 3.1999998092651367
      vertex 8.02619743347168 10.217156410217285 1.5999994277954102
      vertex 8.02619743347168 10.217156410217285 3.1999998092651367
    endloop
  endfacet
  facet normal 0.7071067811865476 0.7071067811865476 0
    outer loop
      vertex 8.02619743347168 10.217156410217285 1.5999994277954102
      vertex 10.217156410217285 8.02619743347168 3.1999998092651367
      vertex 10.217156410217285 8.02619743347168 1.5999994277954102
    endloop
  endfacet
  facet normal -0.7071067811865475 -0.7071067811865475 0
    outer loop
      vertex 6.329140663146973 10.5 0
      vertex 6.6119842529296875 10.217156410217285 1.5999994277954102
      vertex 6.329140663146973 10.5 1.5999994277954102
    endloop
  endfacet
  facet normal -0.7071067811865475 -0.7071067811865475 0
    outer loop
      vertex 6.6119842529296875 10.217156410217285 1.5999994277954102
      vertex 10.217156410217285 6.6119842529296875 1.5999994277954102
      vertex 6.6119842529296875 10.217156410217285 4.399999618530273
    endloop
  endfacet
  facet normal -0.7071067811865476 -0.7071067811865476 0
    outer loop
      vertex 6.329140663146973 10.5 0
      vertex 10.217156410217285 6.6119842529296875 1.5999994277954102
      vertex 6.6119842529296875 10.217156410217285 1.5999994277954102
    endloop
  endfacet
  facet normal -0.7071067811865476 -0.7071067811865476 0
    outer loop
      vertex 10.5 6.329140663146973 0
      vertex 10.217156410217285 6.6119842529296875 1.5999994277954102
      vertex 6.329140663146973 10.5 0
    endloop
  endfacet
  facet normal -0.7071067811865475 -0.7071067811865475 0
    outer loop
      vertex 10.217156410217285 6.6119842529296875 1.5999994277954102
      vertex 10.5 6.329140663146973 0
      vertex 10.5 6.329140663146973 1.5999994277954102
    endloop
  endfacet
  facet normal -0.7071067811865475 -0.7071067811865475 0
    outer loop
      vertex 6.6119842529296875 10.217156410217285 4.399999618530273
      vertex 10.217156410217285 6.6119842529296875 1.5999994277954102
      vertex 10.217156410217285 6.6119842529296875 4.399999618530273
    endloop
  endfacet
  facet normal 0 0 1
    outer loop
      vertex 8.02619743347168 10.217156410217285 4.399999618530273
      vertex 10.217156410217285 6.6119842529296875 4.399999618530273
      vertex 10.217156410217285 8.02619743347168 4.399999618530273
    endloop
  endfacet
  facet normal 0 0 1
    outer loop
      vertex 10.217156410217285 6.6119842529296875 4.399999618530273
      vertex 8.02619743347168 10.217156410217285 4.399999618530273
      vertex 6.6119842529296875 10.217156410217285 4.399999618530273
    endloop
  endfacet
  facet normal 0.316227593058141 0.316227593058141 0.8944273133001415
    outer loop
      vertex 8.591882705688477 10.217156410217285 4.199999809265137
      vertex 10.217156410217285 8.02619743347168 4.399999618530273
      vertex 10.217156410217285 8.591882705688477 4.199999809265137
    endloop
  endfacet
  facet normal 0.316227593058141 0.316227593058141 0.8944273133001415
    outer loop
      vertex 10.217156410217285 8.02619743347168 4.399999618530273
      vertex 8.591882705688477 10.217156410217285 4.199999809265137
      vertex 8.02619743347168 10.217156410217285 4.399999618530273
    endloop
  endfacet
  facet normal 0 0 1
    outer loop
      vertex -6.329140663146973 10.5 1.5999994277954102
      vertex -8.02619743347168 10.217156410217285 1.5999994277954102
      vertex -6.6119842529296875 10.217156410217285 1.5999994277954102
    endloop
  endfacet
  facet normal 0 0 1
    outer loop
      vertex -10.5 10.5 1.5999994277954102
      vertex -8.02619743347168 10.217156410217285 1.5999994277954102
      vertex -6.329140663146973 10.5 1.5999994277954102
    endloop
  endfacet
  facet normal 0 0 1
    outer loop
      vertex -10.5 10.5 1.5999994277954102
      vertex -10.217156410217285 8.02619743347168 1.5999994277954102
      vertex -8.02619743347168 10.217156410217285 1.5999994277954102
    endloop
  endfacet
  facet normal 0 0 1
    outer loop
      vertex -10.5 6.329140663146973 1.5999994277954102
      vertex -10.217156410217285 8.02619743347168 1.5999994277954102
      vertex -10.5 10.5 1.5999994277954102
    endloop
  endfacet
  facet normal 0 0 1
    outer loop
      vertex -10.217156410217285 8.02619743347168 1.5999994277954102
      vertex -10.5 6.329140663146973 1.5999994277954102
      vertex -10.217156410217285 6.6119842529296875 1.5999994277954102
    endloop
  endfacet
  facet normal 0 1 0
    outer loop
      vertex -8.02619743347168 10.217156410217285 3.1999998092651367
      vertex -8.02619743347168 10.217156410217285 4.399999618530273
      vertex -6.6119842529296875 10.217156410217285 4.399999618530273
    endloop
  endfacet
  facet normal 0 1 0
    outer loop
      vertex -8.591882705688477 10.217156410217285 3.59999942779541
      vertex -8.02619743347168 10.217156410217285 4.399999618530273
      vertex -8.02619743347168 10.217156410217285 3.1999998092651367
    endloop
  endfacet
  facet normal 0 1 0
    outer loop
      vertex -8.02619743347168 10.217156410217285 4.399999618530273
      vertex -8.591882705688477 10.217156410217285 3.59999942779541
      vertex -8.591882705688477 10.217156410217285 4.199999809265137
    endloop
  endfacet
  facet normal 0 1 0
    outer loop
      vertex -6.6119842529296875 10.217156410217285 1.5999994277954102
      vertex -8.02619743347168 10.217156410217285 3.1999998092651367
      vertex -6.6119842529296875 10.217156410217285 4.399999618530273
    endloop
  endfacet
  facet normal 0 1 0
    outer loop
      vertex -8.02619743347168 10.217156410217285 3.1999998092651367
      vertex -6.6119842529296875 10.217156410217285 1.5999994277954102
      vertex -8.02619743347168 10.217156410217285 1.5999994277954102
    endloop
  endfacet
  facet normal -1 0 0
    outer loop
      vertex -10.217156410217285 6.6119842529296875 1.5999994277954102
      vertex -10.217156410217285 8.02619743347168 3.1999998092651367
      vertex -10.217156410217285 8.02619743347168 1.5999994277954102
    endloop
  endfacet
  facet normal -1 0 0
    outer loop
      vertex -10.217156410217285 6.6119842529296875 4.399999618530273
      vertex -10.217156410217285 8.02619743347168 3.1999998092651367
      vertex -10.217156410217285 6.6119842529296875 1.5999994277954102
    endloop
  endfacet
  facet normal -1 0 0
    outer loop
      vertex -10.217156410217285 8.02619743347168 3.1999998092651367
      vertex -10.217156410217285 6.6119842529296875 4.399999618530273
      vertex -10.217156410217285 8.02619743347168 4.399999618530273
    endloop
  endfacet
  facet normal -1 0 0
    outer loop
      vertex -10.217156410217285 8.02619743347168 4.399999618530273
      vertex -10.217156410217285 8.591882705688477 3.59999942779541
      vertex -10.217156410217285 8.02619743347168 3.1999998092651367
    endloop
  endfacet
  facet normal -1 0 0
    outer loop
      vertex -10.217156410217285 8.591882705688477 3.59999942779541
      vertex -10.217156410217285 8.02619743347168 4.399999618530273
      vertex -10.217156410217285 8.591882705688477 4.199999809265137
    endloop
  endfacet
  facet normal -0.7071067811865475 0.7071067811865475 0
    outer loop
      vertex -10.217156410217285 8.591882705688477 3.59999942779541
      vertex -8.591882705688477 10.217156410217285 4.199999809265137
      vertex -8.591882705688477 10.217156410217285 3.59999942779541
    endloop
  endfacet
  facet normal -0.7071067811865475 0.7071067811865475 0
    outer loop
      vertex -8.591882705688477 10.217156410217285 4.199999809265137
      vertex -10.217156410217285 8.591882705688477 3.59999942779541
      vertex -10.217156410217285 8.591882705688477 4.199999809265137
    endloop
  endfacet
  facet normal -0.49999982908012763 0.49999982908012763 -0.7071070229036664
    outer loop
      vertex -10.217156410217285 8.02619743347168 3.1999998092651367
      vertex -8.591882705688477 10.217156410217285 3.59999942779541
      vertex -8.02619743347168 10.217156410217285 3.1999998092651367
    endloop
  endfacet
  facet normal -0.49999982908012763 0.49999982908012763 -0.7071070229036664
    outer loop
      vertex -8.591882705688477 10.217156410217285 3.59999942779541
      vertex -10.217156410217285 8.02619743347168 3.1999998092651367
      vertex -10.217156410217285 8.591882705688477 3.59999942779541
    endloop
  endfacet
  facet normal -0.7071067811865476 0.7071067811865476 0
    outer loop
      vertex -10.217156410217285 8.02619743347168 1.5999994277954102
      vertex -8.02619743347168 10.217156410217285 3.1999998092651367
      vertex -8.02619743347168 10.217156410217285 1.5999994277954102
    endloop
  endfacet
  facet normal -0.7071067811865476 0.7071067811865476 0
    outer loop
      vertex -8.02619743347168 10.217156410217285 3.1999998092651367
      vertex -10.217156410217285 8.02619743347168 1.5999994277954102
      vertex -10.217156410217285 8.02619743347168 3.1999998092651367
    endloop
  endfacet
  facet normal 0.7071067811865475 -0.7071067811865475 0
    outer loop
      vertex -6.6119842529296875 10.217156410217285 4.399999618530273
      vertex -10.217156410217285 6.6119842529296875 4.399999618530273
      vertex -6.6119842529296875 10.217156410217285 1.5999994277954102
    endloop
  endfacet
  facet normal 0.7071067811865475 -0.7071067811865475 0
    outer loop
      vertex -6.6119842529296875 10.217156410217285 1.5999994277954102
      vertex -6.329140663146973 10.5 0
      vertex -6.329140663146973 10.5 1.5999994277954102
    endloop
  endfacet
  facet normal 0.7071067811865475 -0.7071067811865475 0
    outer loop
      vertex -10.217156410217285 6.6119842529296875 1.5999994277954102
      vertex -6.6119842529296875 10.217156410217285 1.5999994277954102
      vertex -10.217156410217285 6.6119842529296875 4.399999618530273
    endloop
  endfacet
  facet normal 0.7071067811865476 -0.7071067811865476 0
    outer loop
      vertex -6.6119842529296875 10.217156410217285 1.5999994277954102
      vertex -10.217156410217285 6.6119842529296875 1.5999994277954102
      vertex -6.329140663146973 10.5 0
    endloop
  endfacet
  facet normal 0.7071067811865475 -0.7071067811865475 0
    outer loop
      vertex -10.5 6.329140663146973 0
      vertex -10.217156410217285 6.6119842529296875 1.5999994277954102
      vertex -10.5 6.329140663146973 1.5999994277954102
    endloop
  endfacet
  facet normal 0.7071067811865476 -0.7071067811865476 0
    outer loop
      vertex -10.217156410217285 6.6119842529296875 1.5999994277954102
      vertex -10.5 6.329140663146973 0
      vertex -6.329140663146973 10.5 0
    endloop
  endfacet
  facet normal 0 0 1
    outer loop
      vertex -10.217156410217285 8.02619743347168 4.399999618530273
      vertex -6.6119842529296875 10.217156410217285 4.399999618530273
      vertex -8.02619743347168 10.217156410217285 4.399999618530273
    endloop
  endfacet
  facet normal 0 0 1
    outer loop
      vertex -6.6119842529296875 10.217156410217285 4.399999618530273
      vertex -10.217156410217285 8.02619743347168 4.399999618530273
      vertex -10.217156410217285 6.6119842529296875 4.399999618530273
    endloop
  endfacet
  facet normal -0.316227593058141 0.316227593058141 0.8944273133001415
    outer loop
      vertex -10.217156410217285 8.591882705688477 4.199999809265137
      vertex -8.02619743347168 10.217156410217285 4.399999618530273
      vertex -8.591882705688477 10.217156410217285 4.199999809265137
    endloop
  endfacet
  facet normal -0.316227593058141 0.316227593058141 0.8944273133001415
    outer loop
      vertex -8.02619743347168 10.217156410217285 4.399999618530273
      vertex -10.217156410217285 8.591882705688477 4.199999809265137
      vertex -10.217156410217285 8.02619743347168 4.399999618530273
    endloop
  endfacet
  facet normal 0 0 1
    outer loop
      vertex -10.217156410217285 -6.6119842529296875 1.5999994277954102
      vertex -10.5 -6.329140663146973 1.5999994277954102
      vertex -10.217156410217285 -8.02619743347168 1.5999994277954102
    endloop
  endfacet
  facet normal 0 0 1
    outer loop
      vertex -8.02619743347168 -10.217156410217285 1.5999994277954102
      vertex -6.329140663146973 -10.5 1.5999994277954102
      vertex -6.6119842529296875 -10.217156410217285 1.5999994277954102
    endloop
  endfacet
  facet normal 0 0 1
    outer loop
      vertex -8.02619743347168 -10.217156410217285 1.5999994277954102
      vertex -10.5 -10.5 1.5999994277954102
      vertex -6.329140663146973 -10.5 1.5999994277954102
    endloop
  endfacet
  facet normal 0 0 1
    outer loop
      vertex -10.217156410217285 -8.02619743347168 1.5999994277954102
      vertex -10.5 -10.5 1.5999994277954102
      vertex -8.02619743347168 -10.217156410217285 1.5999994277954102
    endloop
  endfacet
  facet normal 0 0 1
    outer loop
      vertex -10.5 -10.5 1.5999994277954102
      vertex -10.217156410217285 -8.02619743347168 1.5999994277954102
      vertex -10.5 -6.329140663146973 1.5999994277954102
    endloop
  endfacet
  facet normal -1 0 0
    outer loop
      vertex -10.217156410217285 -8.02619743347168 3.1999998092651367
      vertex -10.217156410217285 -6.6119842529296875 1.5999994277954102
      vertex -10.217156410217285 -8.02619743347168 1.5999994277954102
    endloop
  endfacet
  facet normal -1 0 0
    outer loop
      vertex -10.217156410217285 -6.6119842529296875 1.5999994277954102
      vertex -10.217156410217285 -8.02619743347168 3.1999998092651367
      vertex -10.217156410217285 -6.6119842529296875 4.399999618530273
    endloop
  endfacet
  facet normal -1 0 0
    outer loop
      vertex -10.217156410217285 -8.02619743347168 3.1999998092651367
      vertex -10.217156410217285 -8.02619743347168 4.399999618530273
      vertex -10.217156410217285 -6.6119842529296875 4.399999618530273
    endloop
  endfacet
  facet normal -1 0 0
    outer loop
      vertex -10.217156410217285 -8.591882705688477 3.59999942779541
      vertex -10.217156410217285 -8.02619743347168 4.399999618530273
      vertex -10.217156410217285 -8.02619743347168 3.1999998092651367
    endloop
  endfacet
  facet normal -1 0 0
    outer loop
      vertex -10.217156410217285 -8.02619743347168 4.399999618530273
      vertex -10.217156410217285 -8.591882705688477 3.59999942779541
      vertex -10.217156410217285 -8.591882705688477 4.199999809265137
    endloop
  endfacet
  facet normal 0 -1 0
    outer loop
      vertex -8.591882705688477 -10.217156410217285 3.59999942779541
      vertex -8.02619743347168 -10.217156410217285 4.399999618530273
      vertex -8.591882705688477 -10.217156410217285 4.199999809265137
    endloop
  endfacet
  facet normal 0 -1 0
    outer loop
      vertex -8.02619743347168 -10.217156410217285 4.399999618530273
      vertex -8.591882705688477 -10.217156410217285 3.59999942779541
      vertex -8.02619743347168 -10.217156410217285 3.1999998092651367
    endloop
  endfacet
  facet normal 0 -1 0
    outer loop
      vertex -8.02619743347168 -10.217156410217285 4.399999618530273
      vertex -8.02619743347168 -10.217156410217285 3.1999998092651367
      vertex -6.6119842529296875 -10.217156410217285 4.399999618530273
    endloop
  endfacet
  facet normal 0 -1 0
    outer loop
      vertex -6.6119842529296875 -10.217156410217285 1.5999994277954102
      vertex -8.02619743347168 -10.217156410217285 3.1999998092651367
      vertex -8.02619743347168 -10.217156410217285 1.5999994277954102
    endloop
  endfacet
  facet normal 0 -1 0
    outer loop
      vertex -8.02619743347168 -10.217156410217285 3.1999998092651367
      vertex -6.6119842529296875 -10.217156410217285 1.5999994277954102
      vertex -6.6119842529296875 -10.217156410217285 4.399999618530273
    endloop
  endfacet
  facet normal -0.7071067811865475 -0.7071067811865475 0
    outer loop
      vertex -8.591882705688477 -10.217156410217285 3.59999942779541
      vertex -10.217156410217285 -8.591882705688477 4.199999809265137
      vertex -10.217156410217285 -8.591882705688477 3.59999942779541
    endloop
  endfacet
  facet normal -0.7071067811865475 -0.7071067811865475 0
    outer loop
      vertex -10.217156410217285 -8.591882705688477 4.199999809265137
      vertex -8.591882705688477 -10.217156410217285 3.59999942779541
      vertex -8.591882705688477 -10.217156410217285 4.199999809265137
    endloop
  endfacet
  facet normal -0.49999982908012763 -0.49999982908012763 -0.7071070229036664
    outer loop
      vertex -10.217156410217285 -8.591882705688477 3.59999942779541
      vertex -8.02619743347168 -10.217156410217285 3.1999998092651367
      vertex -8.591882705688477 -10.217156410217285 3.59999942779541
    endloop
  endfacet
  facet normal -0.49999982908012763 -0.49999982908012763 -0.7071070229036664
    outer loop
      vertex -8.02619743347168 -10.217156410217285 3.1999998092651367
      vertex -10.217156410217285 -8.591882705688477 3.59999942779541
      vertex -10.217156410217285 -8.02619743347168 3.1999998092651367
    endloop
  endfacet
  facet normal -0.7071067811865476 -0.7071067811865476 0
    outer loop
      vertex -8.02619743347168 -10.217156410217285 1.5999994277954102
      vertex -10.217156410217285 -8.02619743347168 3.1999998092651367
      vertex -10.217156410217285 -8.02619743347168 1.5999994277954102
    endloop
  endfacet
  facet normal -0.7071067811865476 -0.7071067811865476 0
    outer loop
      vertex -10.217156410217285 -8.02619743347168 3.1999998092651367
      vertex -8.02619743347168 -10.217156410217285 1.5999994277954102
      vertex -8.02619743347168 -10.217156410217285 3.1999998092651367
    endloop
  endfacet
  facet normal 0.7071067811865475 0.7071067811865475 0
    outer loop
      vertex -10.217156410217285 -6.6119842529296875 4.399999618530273
      vertex -6.6119842529296875 -10.217156410217285 4.399999618530273
      vertex -10.217156410217285 -6.6119842529296875 1.5999994277954102
    endloop
  endfacet
  facet normal 0.7071067811865475 0.7071067811865475 0
    outer loop
      vertex -10.217156410217285 -6.6119842529296875 1.5999994277954102
      vertex -10.5 -6.329140663146973 0
      vertex -10.5 -6.329140663146973 1.5999994277954102
    endloop
  endfacet
  facet normal 0.7071067811865475 0.7071067811865475 0
    outer loop
      vertex -6.6119842529296875 -10.217156410217285 1.5999994277954102
      vertex -10.217156410217285 -6.6119842529296875 1.5999994277954102
      vertex -6.6119842529296875 -10.217156410217285 4.399999618530273
    endloop
  endfacet
  facet normal 0.7071067811865476 0.7071067811865476 0
    outer loop
      vertex -10.217156410217285 -6.6119842529296875 1.5999994277954102
      vertex -6.6119842529296875 -10.217156410217285 1.5999994277954102
      vertex -10.5 -6.329140663146973 0
    endloop
  endfacet
  facet normal 0.7071067811865475 0.7071067811865475 0
    outer loop
      vertex -6.329140663146973 -10.5 0
      vertex -6.6119842529296875 -10.217156410217285 1.5999994277954102
      vertex -6.329140663146973 -10.5 1.5999994277954102
    endloop
  endfacet
  facet normal 0.7071067811865476 0.7071067811865476 0
    outer loop
      vertex -6.6119842529296875 -10.217156410217285 1.5999994277954102
      vertex -6.329140663146973 -10.5 0
      vertex -10.5 -6.329140663146973 0
    endloop
  endfacet
  facet normal 0 0 1
    outer loop
      vertex -10.217156410217285 -6.6119842529296875 4.399999618530273
      vertex -8.02619743347168 -10.217156410217285 4.399999618530273
      vertex -6.6119842529296875 -10.217156410217285 4.399999618530273
    endloop
  endfacet
  facet normal 0 0 1
    outer loop
      vertex -8.02619743347168 -10.217156410217285 4.399999618530273
      vertex -10.217156410217285 -6.6119842529296875 4.399999618530273
      vertex -10.217156410217285 -8.02619743347168 4.399999618530273
    endloop
  endfacet
  facet normal -0.316227593058141 -0.316227593058141 0.8944273133001415
    outer loop
      vertex -10.217156410217285 -8.02619743347168 4.399999618530273
      vertex -8.591882705688477 -10.217156410217285 4.199999809265137
      vertex -8.02619743347168 -10.217156410217285 4.399999618530273
    endloop
  endfacet
  facet normal -0.316227593058141 -0.316227593058141 0.8944273133001415
    outer loop
      vertex -8.591882705688477 -10.217156410217285 4.199999809265137
      vertex -10.217156410217285 -8.02619743347168 4.399999618530273
      vertex -10.217156410217285 -8.591882705688477 4.199999809265137
    endloop
  endfacet
  facet normal 0 0 1
    outer loop
      vertex 10.217156410217285 -8.02619743347168 1.5999994277954102
      vertex 10.5 -6.329140663146973 1.5999994277954102
      vertex 10.217156410217285 -6.6119842529296875 1.5999994277954102
    endloop
  endfacet
  facet normal 0 0 1
    outer loop
      vertex 10.5 -6.329140663146973 1.5999994277954102
      vertex 10.217156410217285 -8.02619743347168 1.5999994277954102
      vertex 10.5 -10.5 1.5999994277954102
    endloop
  endfacet
  facet normal 0 0 1
    outer loop
      vertex 8.02619743347168 -10.217156410217285 1.5999994277954102
      vertex 10.5 -10.5 1.5999994277954102
      vertex 10.217156410217285 -8.02619743347168 1.5999994277954102
    endloop
  endfacet
  facet normal 0 0 1
    outer loop
      vertex 6.329140663146973 -10.5 1.5999994277954102
      vertex 8.02619743347168 -10.217156410217285 1.5999994277954102
      vertex 6.6119842529296875 -10.217156410217285 1.5999994277954102
    endloop
  endfacet
  facet normal 0 0 1
    outer loop
      vertex 8.02619743347168 -10.217156410217285 1.5999994277954102
      vertex 6.329140663146973 -10.5 1.5999994277954102
      vertex 10.5 -10.5 1.5999994277954102
    endloop
  endfacet
  facet normal 0 -1 0
    outer loop
      vertex 8.02619743347168 -10.217156410217285 3.1999998092651367
      vertex 8.02619743347168 -10.217156410217285 4.399999618530273
      vertex 6.6119842529296875 -10.217156410217285 4.399999618530273
    endloop
  endfacet
  facet normal 0 -1 0
    outer loop
      vertex 8.591882705688477 -10.217156410217285 3.59999942779541
      vertex 8.02619743347168 -10.217156410217285 4.399999618530273
      vertex 8.02619743347168 -10.217156410217285 3.1999998092651367
    endloop
  endfacet
  facet normal 0 -1 0
    outer loop
      vertex 8.02619743347168 -10.217156410217285 4.399999618530273
      vertex 8.591882705688477 -10.217156410217285 3.59999942779541
      vertex 8.591882705688477 -10.217156410217285 4.199999809265137
    endloop
  endfacet
  facet normal 0 -1 0
    outer loop
      vertex 6.6119842529296875 -10.217156410217285 1.5999994277954102
      vertex 8.02619743347168 -10.217156410217285 3.1999998092651367
      vertex 6.6119842529296875 -10.217156410217285 4.399999618530273
    endloop
  endfacet
  facet normal 0 -1 0
    outer loop
      vertex 8.02619743347168 -10.217156410217285 3.1999998092651367
      vertex 6.6119842529296875 -10.217156410217285 1.5999994277954102
      vertex 8.02619743347168 -10.217156410217285 1.5999994277954102
    endloop
  endfacet
  facet normal 1 0 0
    outer loop
      vertex 10.217156410217285 -8.591882705688477 3.59999942779541
      vertex 10.217156410217285 -8.02619743347168 4.399999618530273
      vertex 10.217156410217285 -8.591882705688477 4.199999809265137
    endloop
  endfacet
  facet normal 1 0 0
    outer loop
      vertex 10.217156410217285 -8.02619743347168 4.399999618530273
      vertex 10.217156410217285 -8.591882705688477 3.59999942779541
      vertex 10.217156410217285 -8.02619743347168 3.1999998092651367
    endloop
  endfacet
  facet normal 1 0 0
    outer loop
      vertex 10.217156410217285 -8.02619743347168 3.1999998092651367
      vertex 10.217156410217285 -6.6119842529296875 4.399999618530273
      vertex 10.217156410217285 -8.02619743347168 4.399999618530273
    endloop
  endfacet
  facet normal 1 0 0
    outer loop
      vertex 10.217156410217285 -6.6119842529296875 4.399999618530273
      vertex 10.217156410217285 -8.02619743347168 3.1999998092651367
      vertex 10.217156410217285 -6.6119842529296875 1.5999994277954102
    endloop
  endfacet
  facet normal 1 0 0
    outer loop
      vertex 10.217156410217285 -6.6119842529296875 1.5999994277954102
      vertex 10.217156410217285 -8.02619743347168 3.1999998092651367
      vertex 10.217156410217285 -8.02619743347168 1.5999994277954102
    endloop
  endfacet
  facet normal 0.7071067811865475 -0.7071067811865475 0
    outer loop
      vertex 8.591882705688477 -10.217156410217285 4.199999809265137
      vertex 10.217156410217285 -8.591882705688477 3.59999942779541
      vertex 10.217156410217285 -8.591882705688477 4.199999809265137
    endloop
  endfacet
  facet normal 0.7071067811865475 -0.7071067811865475 0
    outer loop
      vertex 10.217156410217285 -8.591882705688477 3.59999942779541
      vertex 8.591882705688477 -10.217156410217285 4.199999809265137
      vertex 8.591882705688477 -10.217156410217285 3.59999942779541
    endloop
  endfacet
  facet normal 0.49999982908012763 -0.49999982908012763 -0.7071070229036664
    outer loop
      vertex 8.591882705688477 -10.217156410217285 3.59999942779541
      vertex 10.217156410217285 -8.02619743347168 3.1999998092651367
      vertex 10.217156410217285 -8.591882705688477 3.59999942779541
    endloop
  endfacet
  facet normal 0.49999982908012763 -0.49999982908012763 -0.7071070229036664
    outer loop
      vertex 10.217156410217285 -8.02619743347168 3.1999998092651367
      vertex 8.591882705688477 -10.217156410217285 3.59999942779541
      vertex 8.02619743347168 -10.217156410217285 3.1999998092651367
    endloop
  endfacet
  facet normal 0.7071067811865476 -0.7071067811865476 0
    outer loop
      vertex 8.02619743347168 -10.217156410217285 3.1999998092651367
      vertex 10.217156410217285 -8.02619743347168 1.5999994277954102
      vertex 10.217156410217285 -8.02619743347168 3.1999998092651367
    endloop
  endfacet
  facet normal 0.7071067811865476 -0.7071067811865476 0
    outer loop
      vertex 10.217156410217285 -8.02619743347168 1.5999994277954102
      vertex 8.02619743347168 -10.217156410217285 3.1999998092651367
      vertex 8.02619743347168 -10.217156410217285 1.5999994277954102
    endloop
  endfacet
  facet normal -0.7071067811865475 0.7071067811865475 0
    outer loop
      vertex 10.5 -6.329140663146973 0
      vertex 10.217156410217285 -6.6119842529296875 1.5999994277954102
      vertex 10.5 -6.329140663146973 1.5999994277954102
    endloop
  endfacet
  facet normal -0.7071067811865475 0.7071067811865475 0
    outer loop
      vertex 10.217156410217285 -6.6119842529296875 1.5999994277954102
      vertex 6.6119842529296875 -10.217156410217285 1.5999994277954102
      vertex 10.217156410217285 -6.6119842529296875 4.399999618530273
    endloop
  endfacet
  facet normal -0.7071067811865476 0.7071067811865476 0
    outer loop
      vertex 10.5 -6.329140663146973 0
      vertex 6.6119842529296875 -10.217156410217285 1.5999994277954102
      vertex 10.217156410217285 -6.6119842529296875 1.5999994277954102
    endloop
  endfacet
  facet normal -0.7071067811865476 0.7071067811865476 0
    outer loop
      vertex 6.329140663146973 -10.5 0
      vertex 6.6119842529296875 -10.217156410217285 1.5999994277954102
      vertex 10.5 -6.329140663146973 0
    endloop
  endfacet
  facet normal -0.7071067811865475 0.7071067811865475 0
    outer loop
      vertex 6.6119842529296875 -10.217156410217285 1.5999994277954102
      vertex 6.329140663146973 -10.5 0
      vertex 6.329140663146973 -10.5 1.5999994277954102
    endloop
  endfacet
  facet normal -0.7071067811865475 0.7071067811865475 0
    outer loop
      vertex 10.217156410217285 -6.6119842529296875 4.399999618530273
      vertex 6.6119842529296875 -10.217156410217285 1.5999994277954102
      vertex 6.6119842529296875 -10.217156410217285 4.399999618530273
    endloop
  endfacet
  facet normal 0 0 1
    outer loop
      vertex 10.217156410217285 -6.6119842529296875 4.399999618530273
      vertex 8.02619743347168 -10.217156410217285 4.399999618530273
      vertex 10.217156410217285 -8.02619743347168 4.399999618530273
    endloop
  endfacet
  facet normal 0 0 1
    outer loop
      vertex 8.02619743347168 -10.217156410217285 4.399999618530273
      vertex 10.217156410217285 -6.6119842529296875 4.399999618530273
      vertex 6.6119842529296875 -10.217156410217285 4.399999618530273
    endloop
  endfacet
  facet normal 0.316227593058141 -0.316227593058141 0.8944273133001415
    outer loop
      vertex 10.217156410217285 -8.02619743347168 4.399999618530273
      vertex 8.591882705688477 -10.217156410217285 4.199999809265137
      vertex 10.217156410217285 -8.591882705688477 4.199999809265137
    endloop
  endfacet
  facet normal 0.316227593058141 -0.316227593058141 0.8944273133001415
    outer loop
      vertex 8.591882705688477 -10.217156410217285 4.199999809265137
      vertex 10.217156410217285 -8.02619743347168 4.399999618530273
      vertex 8.02619743347168 -10.217156410217285 4.399999618530273
    endloop
  endfacet
  facet normal 0 1 0
    outer loop
      vertex 14.25 14.25 0
      vertex -14.25 14.25 2.299999237060547
      vertex 14.25 14.25 2.299999237060547
    endloop
  endfacet
  facet normal 0 1 0
    outer loop
      vertex -14.25 14.25 2.299999237060547
      vertex 14.25 14.25 0
      vertex -14.25 14.25 0
    endloop
  endfacet
  facet normal -1 0 0
    outer loop
      vertex -14.25 -14.25 0
      vertex -14.25 14.25 2.299999237060547
      vertex -14.25 14.25 0
    endloop
  endfacet
  facet normal -1 0 0
    outer loop
      vertex -14.25 14.25 2.299999237060547
      vertex -14.25 -14.25 0
      vertex -14.25 -14.25 2.299999237060547
    endloop
  endfacet
  facet normal 0 -1 0
    outer loop
      vertex -14.25 -14.25 0
      vertex 14.25 -14.25 2.299999237060547
      vertex -14.25 -14.25 2.299999237060547
    endloop
  endfacet
  facet normal 0 -1 0
    outer loop
      vertex 14.25 -14.25 2.299999237060547
      vertex -14.25 -14.25 0
      vertex 14.25 -14.25 0
    endloop
  endfacet
  facet normal 1 0 0
    outer loop
      vertex 14.25 -14.25 2.299999237060547
      vertex 14.25 14.25 0
      vertex 14.25 14.25 2.299999237060547
    endloop
  endfacet
  facet normal 1 0 0
    outer loop
      vertex 14.25 14.25 0
      vertex 14.25 -14.25 2.299999237060547
      vertex 14.25 -14.25 0
    endloop
  endfacet
  facet normal 1 0 0
    outer loop
      vertex -10.5 10.5 2.299999237060547
      vertex -10.5 6.329140663146973 1.5999994277954102
      vertex -10.5 10.5 1.5999994277954102
    endloop
  endfacet
  facet normal 1 0 0
    outer loop
      vertex -10.5 6.329140663146973 1.5999994277954102
      vertex -10.5 -6.329140663146973 1.5999994277954102
      vertex -10.5 6.329140663146973 0
    endloop
  endfacet
  facet normal 1 0 0
    outer loop
      vertex -10.5 10.5 2.299999237060547
      vertex -10.5 -6.329140663146973 1.5999994277954102
      vertex -10.5 6.329140663146973 1.5999994277954102
    endloop
  endfacet
  facet normal 1 0 0
    outer loop
      vertex -10.5 -10.5 2.299999237060547
      vertex -10.5 -6.329140663146973 1.5999994277954102
      vertex -10.5 10.5 2.299999237060547
    endloop
  endfacet
  facet normal 1 0 0
    outer loop
      vertex -10.5 -6.329140663146973 1.5999994277954102
      vertex -10.5 -10.5 2.299999237060547
      vertex -10.5 -10.5 1.5999994277954102
    endloop
  endfacet
  facet normal 1 0 0
    outer loop
      vertex -10.5 6.329140663146973 0
      vertex -10.5 -6.329140663146973 1.5999994277954102
      vertex -10.5 -6.329140663146973 0
    endloop
  endfacet
  facet normal 0 -1 0
    outer loop
      vertex -6.329140663146973 10.5 0
      vertex 6.329140663146973 10.5 1.5999994277954102
      vertex -6.329140663146973 10.5 1.5999994277954102
    endloop
  endfacet
  facet normal 0 -1 0
    outer loop
      vertex 6.329140663146973 10.5 1.5999994277954102
      vertex -6.329140663146973 10.5 0
      vertex 6.329140663146973 10.5 0
    endloop
  endfacet
  facet normal 0 -1 0
    outer loop
      vertex -6.329140663146973 10.5 1.5999994277954102
      vertex -10.5 10.5 2.299999237060547
      vertex -10.5 10.5 1.5999994277954102
    endloop
  endfacet
  facet normal 0 -1 0
    outer loop
      vertex -10.5 10.5 2.299999237060547
      vertex -6.329140663146973 10.5 1.5999994277954102
      vertex 10.5 10.5 2.299999237060547
    endloop
  endfacet
  facet normal 0 -1 0
    outer loop
      vertex 6.329140663146973 10.5 1.5999994277954102
      vertex 10.5 10.5 2.299999237060547
      vertex -6.329140663146973 10.5 1.5999994277954102
    endloop
  endfacet
  facet normal 0 -1 0
    outer loop
      vertex 10.5 10.5 2.299999237060547
      vertex 6.329140663146973 10.5 1.5999994277954102
      vertex 10.5 10.5 1.5999994277954102
    endloop
  endfacet
  facet normal -1 0 0
    outer loop
      vertex 10.5 6.329140663146973 0
      vertex 10.5 -6.329140663146973 0
      vertex 10.5 6.329140663146973 1.5999994277954102
    endloop
  endfacet
  facet normal -1 0 0
    outer loop
      vertex 10.5 6.329140663146973 1.5999994277954102
      vertex 10.5 10.5 2.299999237060547
      vertex 10.5 10.5 1.5999994277954102
    endloop
  endfacet
  facet normal -1 0 0
    outer loop
      vertex 10.5 -6.329140663146973 1.5999994277954102
      vertex 10.5 6.329140663146973 1.5999994277954102
      vertex 10.5 -6.329140663146973 0
    endloop
  endfacet
  facet normal -1 0 0
    outer loop
      vertex 10.5 6.329140663146973 1.5999994277954102
      vertex 10.5 -6.329140663146973 1.5999994277954102
      vertex 10.5 10.5 2.299999237060547
    endloop
  endfacet
  facet normal -1 0 0
    outer loop
      vertex 10.5 -10.5 2.299999237060547
      vertex 10.5 -6.329140663146973 1.5999994277954102
      vertex 10.5 -10.5 1.5999994277954102
    endloop
  endfacet
  facet normal -1 0 0
    outer loop
      vertex 10.5 -6.329140663146973 1.5999994277954102
      vertex 10.5 -10.5 2.299999237060547
      vertex 10.5 10.5 2.299999237060547
    endloop
  endfacet
  facet normal 0 1 0
    outer loop
      vertex 6.329140663146973 -10.5 0
      vertex -6.329140663146973 -10.5 1.5999994277954102
      vertex 6.329140663146973 -10.5 1.5999994277954102
    endloop
  endfacet
  facet normal 0 1 0
    outer loop
      vertex -6.329140663146973 -10.5 1.5999994277954102
      vertex 6.329140663146973 -10.5 0
      vertex -6.329140663146973 -10.5 0
    endloop
  endfacet
  facet normal 0 1 0
    outer loop
      vertex 6.329140663146973 -10.5 1.5999994277954102
      vertex 10.5 -10.5 2.299999237060547
      vertex 10.5 -10.5 1.5999994277954102
    endloop
  endfacet
  facet normal 0 1 0
    outer loop
      vertex 10.5 -10.5 2.299999237060547
      vertex 6.329140663146973 -10.5 1.5999994277954102
      vertex -10.5 -10.5 2.299999237060547
    endloop
  endfacet
  facet normal 0 1 0
    outer loop
      vertex -6.329140663146973 -10.5 1.5999994277954102
      vertex -10.5 -10.5 2.299999237060547
      vertex 6.329140663146973 -10.5 1.5999994277954102
    endloop
  endfacet
  facet normal 0 1 0
    outer loop
      vertex -10.5 -10.5 2.299999237060547
      vertex -6.329140663146973 -10.5 1.5999994277954102
      vertex -10.5 -10.5 1.5999994277954102
    endloop
  endfacet
  facet normal 0 0 1
    outer loop
      vertex 10.5 -10.5 2.299999237060547
      vertex -5 -11.25 2.299999237060547
      vertex 5 -11.25 2.299999237060547
    endloop
  endfacet
  facet normal 0 0 1
    outer loop
      vertex -5 -11.25 2.299999237060547
      vertex -10.5 -10.5 2.299999237060547
      vertex -5 -14.049999237060547 2.299999237060547
    endloop
  endfacet
  facet normal 0 0 1
    outer loop
      vertex -10.5 -10.5 2.299999237060547
      vertex -5 -11.25 2.299999237060547
      vertex 10.5 -10.5 2.299999237060547
    endloop
  endfacet
  facet normal 0 0 1
    outer loop
      vertex 14.25 14.25 2.299999237060547
      vertex 14.049999237060547 5 2.299999237060547
      vertex 14.25 -14.25 2.299999237060547
    endloop
  endfacet
  facet normal 0 0 1
    outer loop
      vertex 10.5 10.5 2.299999237060547
      vertex 14.049999237060547 5 2.299999237060547
      vertex 14.25 14.25 2.299999237060547
    endloop
  endfacet
  facet normal 0 0 1
    outer loop
      vertex 11.25 5 2.299999237060547
      vertex 10.5 10.5 2.299999237060547
      vertex 11.25 -5 2.299999237060547
    endloop
  endfacet
  facet normal 0 0 1
    outer loop
      vertex 14.049999237060547 5 2.299999237060547
      vertex 10.5 10.5 2.299999237060547
      vertex 11.25 5 2.299999237060547
    endloop
  endfacet
  facet normal 0 0 1
    outer loop
      vertex 14.25 14.25 2.299999237060547
      vertex 5 14.049999237060547 2.299999237060547
      vertex 10.5 10.5 2.299999237060547
    endloop
  endfacet
  facet normal 0 0 1
    outer loop
      vertex 14.25 14.25 2.299999237060547
      vertex -5 14.049999237060547 2.299999237060547
      vertex 5 14.049999237060547 2.299999237060547
    endloop
  endfacet
  facet normal 0 0 1
    outer loop
      vertex -5 14.049999237060547 2.299999237060547
      vertex -10.5 10.5 2.299999237060547
      vertex -5 11.25 2.299999237060547
    endloop
  endfacet
  facet normal 0 0 1
    outer loop
      vertex -10.5 10.5 2.299999237060547
      vertex -11.25 5 2.299999237060547
      vertex -10.5 -10.5 2.299999237060547
    endloop
  endfacet
  facet normal 0 0 1
    outer loop
      vertex -10.5 10.5 2.299999237060547
      vertex -14.049999237060547 5 2.299999237060547
      vertex -11.25 5 2.299999237060547
    endloop
  endfacet
  facet normal 0 0 1
    outer loop
      vertex -14.049999237060547 5 2.299999237060547
      vertex -14.25 14.25 2.299999237060547
      vertex -14.049999237060547 -5 2.299999237060547
    endloop
  endfacet
  facet normal 0 0 1
    outer loop
      vertex -10.5 10.5 2.299999237060547
      vertex -14.25 14.25 2.299999237060547
      vertex -14.049999237060547 5 2.299999237060547
    endloop
  endfacet
  facet normal 0 0 1
    outer loop
      vertex -5 14.049999237060547 2.299999237060547
      vertex -14.25 14.25 2.299999237060547
      vertex -10.5 10.5 2.299999237060547
    endloop
  endfacet
  facet normal 0 0 1
    outer loop
      vertex -14.25 14.25 2.299999237060547
      vertex -5 14.049999237060547 2.299999237060547
      vertex 14.25 14.25 2.299999237060547
    endloop
  endfacet
  facet normal 0 0 1
    outer loop
      vertex 14.049999237060547 -5 2.299999237060547
      vertex 14.25 -14.25 2.299999237060547
      vertex 14.049999237060547 5 2.299999237060547
    endloop
  endfacet
  facet normal 0 0 1
    outer loop
      vertex 10.5 -10.5 2.299999237060547
      vertex 14.049999237060547 -5 2.299999237060547
      vertex 11.25 -5 2.299999237060547
    endloop
  endfacet
  facet normal 0 0 1
    outer loop
      vertex 10.5 -10.5 2.299999237060547
      vertex 11.25 -5 2.299999237060547
      vertex 10.5 10.5 2.299999237060547
    endloop
  endfacet
  facet normal 0 0 1
    outer loop
      vertex 14.049999237060547 -5 2.299999237060547
      vertex 10.5 -10.5 2.299999237060547
      vertex 14.25 -14.25 2.299999237060547
    endloop
  endfacet
  facet normal 0 0 1
    outer loop
      vertex 5 -14.049999237060547 2.299999237060547
      vertex 10.5 -10.5 2.299999237060547
      vertex 5 -11.25 2.299999237060547
    endloop
  endfacet
  facet normal 0 0 1
    outer loop
      vertex 10.5 -10.5 2.299999237060547
      vertex 5 -14.049999237060547 2.299999237060547
      vertex 14.25 -14.25 2.299999237060547
    endloop
  endfacet
  facet normal 0 0 1
    outer loop
      vertex -5 -14.049999237060547 2.299999237060547
      vertex 14.25 -14.25 2.299999237060547
      vertex 5 -14.049999237060547 2.299999237060547
    endloop
  endfacet
  facet normal 0 0 1
    outer loop
      vertex -11.25 -5 2.299999237060547
      vertex -10.5 -10.5 2.299999237060547
      vertex -11.25 5 2.299999237060547
    endloop
  endfacet
  facet normal 0 0 1
    outer loop
      vertex -14.049999237060547 -5 2.299999237060547
      vertex -10.5 -10.5 2.299999237060547
      vertex -11.25 -5 2.299999237060547
    endloop
  endfacet
  facet normal 0 0 1
    outer loop
      vertex -5 -14.049999237060547 2.299999237060547
      vertex -14.25 -14.25 2.299999237060547
      vertex 14.25 -14.25 2.299999237060547
    endloop
  endfacet
  facet normal 0 0 1
    outer loop
      vertex -10.5 -10.5 2.299999237060547
      vertex -14.25 -14.25 2.299999237060547
      vertex -5 -14.049999237060547 2.299999237060547
    endloop
  endfacet
  facet normal 0 0 1
    outer loop
      vertex -14.049999237060547 -5 2.299999237060547
      vertex -14.25 -14.25 2.299999237060547
      vertex -10.5 -10.5 2.299999237060547
    endloop
  endfacet
  facet normal 0 0 1
    outer loop
      vertex -14.25 -14.25 2.299999237060547
      vertex -14.049999237060547 -5 2.299999237060547
      vertex -14.25 14.25 2.299999237060547
    endloop
  endfacet
  facet normal 0 0 1
    outer loop
      vertex 5 11.25 2.299999237060547
      vertex 10.5 10.5 2.299999237060547
      vertex 5 14.049999237060547 2.299999237060547
    endloop
  endfacet
  facet normal 0 0 1
    outer loop
      vertex -5 11.25 2.299999237060547
      vertex 10.5 10.5 2.299999237060547
      vertex 5 11.25 2.299999237060547
    endloop
  endfacet
  facet normal 0 0 1
    outer loop
      vertex 10.5 10.5 2.299999237060547
      vertex -5 11.25 2.299999237060547
      vertex -10.5 10.5 2.299999237060547
    endloop
  endfacet
endsolid OpenSCAD_Model
